HIERARCHY
ROOT mixamorig:Hips
{
	OFFSET -0.000008 104.274872 1.554316
	CHANNELS 6 Xposition Yposition Zposition Xrotation Yrotation Zrotation
	JOINT mixamorig:Spine
	{
		OFFSET -0.000005 10.181595 0.131519
		CHANNELS 6 Xposition Yposition Zposition Xrotation Yrotation Zrotation
		JOINT mixamorig:Spine1
		{
			OFFSET -0.000000 9.893959 -1.470707
			CHANNELS 6 Xposition Yposition Zposition Xrotation Yrotation Zrotation
			JOINT mixamorig:Spine2
			{
				OFFSET -0.000000 9.220757 -1.370641
				CHANNELS 6 Xposition Yposition Zposition Xrotation Yrotation Zrotation
				JOINT mixamorig:Neck
				{
					OFFSET 0.000001 16.740417 -2.049036
					CHANNELS 6 Xposition Yposition Zposition Xrotation Yrotation Zrotation
					JOINT mixamorig:Head
					{
						OFFSET 0.000000 9.617874 1.685006
						CHANNELS 6 Xposition Yposition Zposition Xrotation Yrotation Zrotation
						JOINT mixamorig:HeadTop_End
						{
							OFFSET 0.000002 22.037354 7.501101
							CHANNELS 6 Xposition Yposition Zposition Xrotation Yrotation Zrotation
							End Site
							{
								OFFSET 0.000168 2310.654297 -282.823242
							}
						}
					}
				}
				JOINT mixamorig:RightShoulder
				{
					OFFSET -4.569970 11.014908 -2.160885
					CHANNELS 6 Xposition Yposition Zposition Xrotation Yrotation Zrotation
					JOINT mixamorig:RightArm
					{
						OFFSET -10.592851 -0.524811 -2.232101
						CHANNELS 6 Xposition Yposition Zposition Xrotation Yrotation Zrotation
						JOINT mixamorig:RightForeArm
						{
							OFFSET -27.841511 0.000031 -0.000004
							CHANNELS 6 Xposition Yposition Zposition Xrotation Yrotation Zrotation
							JOINT mixamorig:RightHand
							{
								OFFSET -28.328831 -0.000015 0.000015
								CHANNELS 6 Xposition Yposition Zposition Xrotation Yrotation Zrotation
								JOINT mixamorig:RightHandThumb1
								{
									OFFSET -2.464806 -1.573990 2.681852
									CHANNELS 6 Xposition Yposition Zposition Xrotation Yrotation Zrotation
									JOINT mixamorig:RightHandThumb2
									{
										OFFSET -3.215179 -1.872803 1.924282
										CHANNELS 6 Xposition Yposition Zposition Xrotation Yrotation Zrotation
										JOINT mixamorig:RightHandThumb3
										{
											OFFSET -2.654831 -1.527969 1.512609
											CHANNELS 6 Xposition Yposition Zposition Xrotation Yrotation Zrotation
											JOINT mixamorig:RightHandThumb4
											{
												OFFSET -2.018814 -1.152008 1.108052
												CHANNELS 6 Xposition Yposition Zposition Xrotation Yrotation Zrotation
												End Site
												{
													OFFSET -188.809540 -114.533607 132.431396
												}
											}
										}
									}
								}
								JOINT mixamorig:RightHandIndex1
								{
									OFFSET -9.108284 -0.517868 2.259835
									CHANNELS 6 Xposition Yposition Zposition Xrotation Yrotation Zrotation
									JOINT mixamorig:RightHandIndex2
									{
										OFFSET -3.699989 0.000000 0.001215
										CHANNELS 6 Xposition Yposition Zposition Xrotation Yrotation Zrotation
										JOINT mixamorig:RightHandIndex3
										{
											OFFSET -2.850006 0.000031 -0.000522
											CHANNELS 6 Xposition Yposition Zposition Xrotation Yrotation Zrotation
											JOINT mixamorig:RightHandIndex4
											{
												OFFSET -2.772186 -0.000015 -0.000020
												CHANNELS 6 Xposition Yposition Zposition Xrotation Yrotation Zrotation
												End Site
												{
													OFFSET -277.218445 0.000000 -0.050231
												}
											}
										}
									}
								}
								JOINT mixamorig:RightHandMiddle1
								{
									OFFSET -9.532516 -0.000031 -0.000023
									CHANNELS 6 Xposition Yposition Zposition Xrotation Yrotation Zrotation
									JOINT mixamorig:RightHandMiddle2
									{
										OFFSET -3.700005 -0.000015 0.003713
										CHANNELS 6 Xposition Yposition Zposition Xrotation Yrotation Zrotation
										JOINT mixamorig:RightHandMiddle3
										{
											OFFSET -2.949974 0.000015 -0.002054
											CHANNELS 6 Xposition Yposition Zposition Xrotation Yrotation Zrotation
											JOINT mixamorig:RightHandMiddle4
											{
												OFFSET -2.946640 0.000000 -0.000156
												CHANNELS 6 Xposition Yposition Zposition Xrotation Yrotation Zrotation
												End Site
												{
													OFFSET -294.664337 0.000000 -0.113670
												}
											}
										}
									}
								}
								JOINT mixamorig:RightHandRing1
								{
									OFFSET -9.103600 -0.043076 -1.865134
									CHANNELS 6 Xposition Yposition Zposition Xrotation Yrotation Zrotation
									JOINT mixamorig:RightHandRing2
									{
										OFFSET -3.379288 0.000000 -0.001055
										CHANNELS 6 Xposition Yposition Zposition Xrotation Yrotation Zrotation
										JOINT mixamorig:RightHandRing3
										{
											OFFSET -2.889687 -0.000015 0.000379
											CHANNELS 6 Xposition Yposition Zposition Xrotation Yrotation Zrotation
											JOINT mixamorig:RightHandRing4
											{
												OFFSET -2.638809 -0.000015 0.000941
												CHANNELS 6 Xposition Yposition Zposition Xrotation Yrotation Zrotation
												End Site
												{
													OFFSET -263.880371 0.000000 0.516020
												}
											}
										}
									}
								}
								JOINT mixamorig:RightHandPinky1
								{
									OFFSET -8.076683 -0.486710 -3.806280
									CHANNELS 6 Xposition Yposition Zposition Xrotation Yrotation Zrotation
									JOINT mixamorig:RightHandPinky2
									{
										OFFSET -3.600014 -0.000015 -0.003747
										CHANNELS 6 Xposition Yposition Zposition Xrotation Yrotation Zrotation
										JOINT mixamorig:RightHandPinky3
										{
											OFFSET -2.099983 0.000000 -0.005739
											CHANNELS 6 Xposition Yposition Zposition Xrotation Yrotation Zrotation
											JOINT mixamorig:RightHandPinky4
											{
												OFFSET -2.115768 -0.000031 -0.003680
												CHANNELS 6 Xposition Yposition Zposition Xrotation Yrotation Zrotation
												End Site
												{
													OFFSET -211.577087 0.000000 -0.350686
												}
											}
										}
									}
								}
							}
						}
					}
				}
				JOINT mixamorig:LeftShoulder
				{
					OFFSET 4.570447 11.014725 -2.160855
					CHANNELS 6 Xposition Yposition Zposition Xrotation Yrotation Zrotation
					JOINT mixamorig:LeftArm
					{
						OFFSET 10.592371 -0.524597 -2.232119
						CHANNELS 6 Xposition Yposition Zposition Xrotation Yrotation Zrotation
						JOINT mixamorig:LeftForeArm
						{
							OFFSET 27.841532 -0.000031 0.000026
							CHANNELS 6 Xposition Yposition Zposition Xrotation Yrotation Zrotation
							JOINT mixamorig:LeftHand
							{
								OFFSET 28.328846 -0.000061 0.000022
								CHANNELS 6 Xposition Yposition Zposition Xrotation Yrotation Zrotation
								JOINT mixamorig:LeftHandThumb1
								{
									OFFSET 2.466141 -1.576172 2.681732
									CHANNELS 6 Xposition Yposition Zposition Xrotation Yrotation Zrotation
									JOINT mixamorig:LeftHandThumb2
									{
										OFFSET 3.217812 -1.872070 1.916482
										CHANNELS 6 Xposition Yposition Zposition Xrotation Yrotation Zrotation
										JOINT mixamorig:LeftHandThumb3
										{
											OFFSET 2.656029 -1.528778 1.514513
											CHANNELS 6 Xposition Yposition Zposition Xrotation Yrotation Zrotation
											JOINT mixamorig:LeftHandThumb4
											{
												OFFSET 2.020889 -1.154053 1.115139
												CHANNELS 6 Xposition Yposition Zposition Xrotation Yrotation Zrotation
												End Site
												{
													OFFSET 190.885437 -115.081749 130.048782
												}
											}
										}
									}
								}
								JOINT mixamorig:LeftHandIndex1
								{
									OFFSET 9.109314 -0.518021 2.259871
									CHANNELS 6 Xposition Yposition Zposition Xrotation Yrotation Zrotation
									JOINT mixamorig:LeftHandIndex2
									{
										OFFSET 3.699989 0.000000 -0.000322
										CHANNELS 6 Xposition Yposition Zposition Xrotation Yrotation Zrotation
										JOINT mixamorig:LeftHandIndex3
										{
											OFFSET 2.850006 0.000000 0.000352
											CHANNELS 6 Xposition Yposition Zposition Xrotation Yrotation Zrotation
											JOINT mixamorig:LeftHandIndex4
											{
												OFFSET 2.774864 -0.000031 -0.000027
												CHANNELS 6 Xposition Yposition Zposition Xrotation Yrotation Zrotation
												End Site
												{
													OFFSET 277.486267 0.000000 -0.009857
												}
											}
										}
									}
								}
								JOINT mixamorig:LeftHandMiddle1
								{
									OFFSET 9.533394 0.000061 0.000044
									CHANNELS 6 Xposition Yposition Zposition Xrotation Yrotation Zrotation
									JOINT mixamorig:LeftHandMiddle2
									{
										OFFSET 3.699989 -0.000015 -0.000231
										CHANNELS 6 Xposition Yposition Zposition Xrotation Yrotation Zrotation
										JOINT mixamorig:LeftHandMiddle3
										{
											OFFSET 2.949997 -0.000015 -0.000059
											CHANNELS 6 Xposition Yposition Zposition Xrotation Yrotation Zrotation
											JOINT mixamorig:LeftHandMiddle4
											{
												OFFSET 2.952896 0.000031 0.000063
												CHANNELS 6 Xposition Yposition Zposition Xrotation Yrotation Zrotation
												End Site
												{
													OFFSET 295.289337 0.000000 0.022810
												}
											}
										}
									}
								}
								JOINT mixamorig:LeftHandRing1
								{
									OFFSET 9.104523 -0.042999 -1.865074
									CHANNELS 6 Xposition Yposition Zposition Xrotation Yrotation Zrotation
									JOINT mixamorig:LeftHandRing2
									{
										OFFSET 3.150009 -0.000031 0.000043
										CHANNELS 6 Xposition Yposition Zposition Xrotation Yrotation Zrotation
										JOINT mixamorig:LeftHandRing3
										{
											OFFSET 2.949982 -0.000015 0.000040
											CHANNELS 6 Xposition Yposition Zposition Xrotation Yrotation Zrotation
											JOINT mixamorig:LeftHandRing4
											{
												OFFSET 2.644348 0.000000 0.000057
												CHANNELS 6 Xposition Yposition Zposition Xrotation Yrotation Zrotation
												End Site
												{
													OFFSET 264.434631 0.000000 0.012105
												}
											}
										}
									}
								}
								JOINT mixamorig:LeftHandPinky1
								{
									OFFSET 8.077789 -0.486847 -3.806259
									CHANNELS 6 Xposition Yposition Zposition Xrotation Yrotation Zrotation
									JOINT mixamorig:LeftHandPinky2
									{
										OFFSET 3.599953 0.000031 0.014727
										CHANNELS 6 Xposition Yposition Zposition Xrotation Yrotation Zrotation
										JOINT mixamorig:LeftHandPinky3
										{
											OFFSET 2.100021 0.000015 0.007705
											CHANNELS 6 Xposition Yposition Zposition Xrotation Yrotation Zrotation
											JOINT mixamorig:LeftHandPinky4
											{
												OFFSET 2.125504 0.000031 0.007517
												CHANNELS 6 Xposition Yposition Zposition Xrotation Yrotation Zrotation
												End Site
												{
													OFFSET 212.550781 0.000000 0.625752
												}
											}
										}
									}
								}
							}
						}
					}
				}
			}
		}
	}
	JOINT mixamorig:RightUpLeg
	{
		OFFSET -8.207787 -6.751648 -1.599560
		CHANNELS 6 Xposition Yposition Zposition Xrotation Yrotation Zrotation
		JOINT mixamorig:RightLeg
		{
			OFFSET -0.000002 -44.370117 0.345942
			CHANNELS 6 Xposition Yposition Zposition Xrotation Yrotation Zrotation
			JOINT mixamorig:RightFoot
			{
				OFFSET 0.000003 -44.423679 -3.043532
				CHANNELS 6 Xposition Yposition Zposition Xrotation Yrotation Zrotation
				JOINT mixamorig:RightToeBase
				{
					OFFSET -0.000002 -8.728671 10.710558
					CHANNELS 6 Xposition Yposition Zposition Xrotation Yrotation Zrotation
					JOINT mixamorig:RightToe_End
					{
						OFFSET -0.000001 -0.000679 9.278119
						CHANNELS 6 Xposition Yposition Zposition Xrotation Yrotation Zrotation
						End Site
						{
							OFFSET 0.000000 -0.067690 927.812134
						}
					}
				}
			}
		}
	}
	JOINT mixamorig:LeftUpLeg
	{
		OFFSET 8.207793 -6.751686 -1.599556
		CHANNELS 6 Xposition Yposition Zposition Xrotation Yrotation Zrotation
		JOINT mixamorig:LeftLeg
		{
			OFFSET -0.000004 -44.370014 0.346954
			CHANNELS 6 Xposition Yposition Zposition Xrotation Yrotation Zrotation
			JOINT mixamorig:LeftFoot
			{
				OFFSET -0.000001 -44.423672 -3.044401
				CHANNELS 6 Xposition Yposition Zposition Xrotation Yrotation Zrotation
				JOINT mixamorig:LeftToeBase
				{
					OFFSET -0.000002 -8.728669 10.710558
					CHANNELS 6 Xposition Yposition Zposition Xrotation Yrotation Zrotation
					JOINT mixamorig:LeftToe_End
					{
						OFFSET -0.000003 -0.000679 9.278133
						CHANNELS 6 Xposition Yposition Zposition Xrotation Yrotation Zrotation
						End Site
						{
							OFFSET 0.000000 -0.068021 927.813477
						}
					}
				}
			}
		}
	}
}
MOTION
Frames: 3
Frame Time: 0.033333
0.000006 104.270477 1.554256 0.000010 0.000003 -0.000113 -0.000005 10.181587 0.131522 0.000001 -0.000003 0.000084 -0.000000 9.893967 -1.470711 0.000001 0.000000 -0.000000 -0.000000 9.220802 -1.370642 0.000000 -0.000000 -0.000000 0.000001 16.740433 -2.049030 0.000000 -0.000000 -0.000000 0.000000 9.617859 1.685014 0.000000 0.000000 0.000000 0.000002 22.037384 7.501101 0.000000 -0.000000 0.000000 -4.569968 11.014880 -2.160881 0.000008 0.000001 -0.000038 -10.592856 -0.524654 -2.232051 71.273939 2.106695 -1.510395 -27.841526 0.000000 0.000520 -57.751824 116.626546 83.554326 -28.328836 0.000021 0.000023 -0.000321 -0.000044 0.000007 -2.464502 -1.573983 2.682426 -18.931071 -157.445846 50.738030 -3.215287 -1.872625 1.924693 160.445296 29.407615 -10.359345 -2.654965 -1.527895 1.513107 149.356744 25.839002 -42.365324 -2.018827 -1.152001 1.108064 -0.000003 -0.000002 0.000005 -9.108371 -0.517559 2.260156 102.902100 17.869858 -22.381989 -3.700088 0.000319 0.001522 100.336804 12.047118 -14.392300 -2.850081 0.000384 -0.000257 98.735712 8.606472 -10.022166 -2.772171 -0.000006 -0.000029 -0.000000 0.000001 -0.000003 -9.532587 0.000261 0.000233 91.293914 16.665947 -17.187468 -3.700060 0.000338 0.003954 92.660949 8.940781 -9.268678 -2.950054 0.000358 -0.001826 92.567395 8.329064 -8.702329 -2.946643 0.000001 -0.000154 0.000002 0.000006 -0.000002 -9.103691 -0.042762 -1.864885 88.623788 17.577494 -17.122757 -3.379321 0.000335 -0.000824 90.510470 7.947508 -8.035519 -2.889713 0.000361 0.000611 93.173028 3.991644 -4.264975 -2.638819 0.000002 0.000937 0.000004 0.000001 0.000001 -8.076737 -0.486402 -3.806080 78.493272 16.038035 -13.007344 -3.600034 0.000290 -0.003554 83.085290 8.191419 -6.946480 -2.099998 0.000330 -0.005525 84.682079 4.866829 -4.237486 -2.115782 -0.000026 -0.003675 -0.000002 0.000001 -0.000004 4.570446 11.014691 -2.160851 -0.000018 0.000010 -0.000021 10.592352 -0.524537 -2.232263 72.138170 14.222609 -10.384493 27.841824 0.000120 -0.000232 102.249810 -62.403327 73.833191 28.328844 -0.000044 0.000031 0.000020 -0.000091 0.000001 2.466161 -1.576118 2.681868 -3.194175 152.335785 -70.356419 3.217800 -1.871759 1.916365 158.982352 -30.269691 5.817392 2.656098 -1.528633 1.514461 139.923952 -27.818720 46.431923 2.020903 -1.154066 1.115156 0.000004 0.000006 0.000001 9.109374 -0.517856 2.259718 85.161715 -16.451562 15.122517 3.700046 0.000155 -0.000465 85.244661 -15.257861 14.069963 2.850065 0.000177 0.000202 82.107719 -12.879658 11.227645 2.774878 -0.000025 -0.000035 -0.000002 0.000002 -0.000002 9.533453 0.000212 -0.000097 85.964672 -16.666672 15.538361 3.700064 0.000196 -0.000381 89.473593 -14.187704 14.056546 2.950084 0.000158 -0.000183 89.358327 -16.094607 15.920679 2.952873 -0.000030 0.000071 0.000000 0.000000 -0.000003 9.104580 -0.042824 -1.865211 86.285787 -15.190540 14.248347 3.150061 0.000197 -0.000102 90.542784 -13.480764 13.609752 2.950023 0.000181 -0.000084 91.501340 -13.516930 13.874236 2.644335 0.000013 0.000067 0.000001 -0.000002 -0.000001 8.077825 -0.486698 -3.806392 80.691445 -16.349408 14.415012 3.600004 0.000205 0.014577 83.794543 -14.925768 13.871915 2.100046 0.000193 0.007565 86.686234 -13.367747 13.084709 2.125502 -0.000018 0.007513 0.000001 -0.000000 0.000001 -8.207786 -6.751667 -1.599560 -0.077001 -0.000003 0.000080 -0.000002 -44.370110 0.345938 0.153719 -0.000000 -0.000000 0.000000 -44.423679 -3.043532 -0.076700 0.000000 -0.000002 -0.000006 -8.728667 10.710559 -0.000009 -0.000000 -0.000000 -0.000001 -0.000679 9.278123 0.000000 -0.000000 -0.000000 8.207792 -6.751710 -1.599556 -0.074518 -0.000003 0.000081 -0.000002 -44.370014 0.346960 0.148822 0.000002 0.000000 -0.000001 -44.423664 -3.044403 -0.074314 0.000000 -0.000002 -0.000004 -8.728671 10.710558 0.000007 -0.000000 -0.000000 0.000000 -0.000680 9.278137 -0.000000 0.000000 -0.000001 
0.000006 104.270477 1.554256 0.000010 0.000003 -0.000113 -0.000005 10.181587 0.131522 0.000001 -0.000003 0.000084 -0.000000 9.893967 -1.470711 0.000001 0.000000 -0.000000 -0.000000 9.220802 -1.370642 0.000000 -0.000000 -0.000000 0.000001 16.740433 -2.049030 0.000000 -0.000000 -0.000000 0.000000 9.617859 1.685014 0.000000 0.000000 0.000000 0.000002 22.037384 7.501101 0.000000 -0.000000 0.000000 -4.569968 11.014880 -2.160881 0.000008 0.000001 -0.000038 -10.592871 -0.524682 -2.232023 71.445917 8.852093 -6.372383 -27.841534 -0.000000 0.000533 -57.633437 116.515405 83.291739 -28.328819 0.000021 0.000024 -0.000318 -0.000046 0.000006 -2.464432 -1.573827 2.682362 -41.510130 -161.822290 5.796888 -3.215279 -1.872581 1.924655 154.859622 32.257775 7.565555 -2.654974 -1.527882 1.513074 145.752713 27.286467 -35.773372 -2.018844 -1.152016 1.108067 -0.000007 0.000006 -0.000000 -9.108368 -0.517557 2.260135 101.575643 15.464940 -18.952908 -3.700062 0.000340 0.001522 99.525692 11.493579 -13.537796 -2.850059 0.000391 -0.000250 99.107288 9.019455 -10.571214 -2.772177 -0.000001 -0.000024 0.000001 0.000001 -0.000001 -9.532590 0.000258 0.000244 92.760321 16.536950 -17.491184 -3.700065 0.000331 0.003949 92.038015 9.400509 -9.644403 -2.950057 0.000349 -0.001828 93.364820 9.363223 -9.919827 -2.946624 -0.000014 -0.000151 -0.000002 -0.000002 -0.000000 -9.103700 -0.042758 -1.864891 88.494868 16.954664 -16.477686 -3.379306 0.000330 -0.000822 90.551909 7.088177 -7.173548 -2.889736 0.000357 0.000617 95.128798 4.971757 -5.485749 -2.638804 -0.000017 0.000943 0.000001 -0.000002 0.000001 -8.076749 -0.486388 -3.806070 78.319648 16.355709 -13.227545 -3.600043 0.000275 -0.003549 82.339604 8.089964 -6.767673 -2.100008 0.000323 -0.005513 85.221233 5.366052 -4.735588 -2.115766 -0.000040 -0.003681 0.000000 0.000001 -0.000004 4.570446 11.014691 -2.160851 -0.000018 0.000010 -0.000021 10.592354 -0.524552 -2.232260 71.408016 17.211202 -12.414340 27.841833 0.000097 -0.000207 102.628278 -65.519771 77.569646 28.328835 -0.000027 0.000026 0.000020 -0.000089 -0.000001 2.466242 -1.576036 2.681828 10.472681 168.219841 -103.827686 3.217867 -1.871778 1.916403 166.785870 -24.094981 30.453013 2.656107 -1.528674 1.514479 143.474817 -26.143888 55.883160 2.020887 -1.154070 1.115148 0.000003 0.000001 0.000004 9.109371 -0.517862 2.259749 86.114718 -20.619590 19.280905 3.700044 0.000145 -0.000484 84.642477 -13.844084 12.632571 2.850048 0.000181 0.000212 82.667856 -10.480059 9.222657 2.774892 -0.000019 -0.000022 0.000000 -0.000003 -0.000002 9.533456 0.000202 -0.000077 85.765975 -19.687795 18.300249 3.700047 0.000188 -0.000358 88.945572 -12.177426 11.954355 2.950063 0.000190 -0.000209 89.505900 -11.276697 11.183352 2.952863 -0.000016 0.000065 -0.000001 0.000000 0.000001 9.104584 -0.042850 -1.865214 86.460974 -18.989152 17.871839 3.150064 0.000193 -0.000099 90.394343 -13.703907 13.799508 2.950032 0.000180 -0.000080 90.967984 -10.990241 11.178100 2.644331 0.000029 0.000060 0.000001 -0.000000 0.000001 8.077840 -0.486722 -3.806402 81.990369 -20.280929 18.203176 3.600018 0.000180 0.014554 81.094413 -17.542958 15.497411 2.100043 0.000173 0.007538 82.985473 -12.649003 11.628733 2.125484 -0.000016 0.007511 -0.000000 -0.000002 -0.000001 -8.207786 -6.751667 -1.599560 -0.077001 -0.000003 0.000080 -0.000002 -44.370110 0.345938 0.153719 -0.000000 -0.000000 0.000000 -44.423679 -3.043532 -0.076700 0.000000 -0.000002 -0.000006 -8.728667 10.710559 -0.000009 -0.000000 -0.000000 -0.000001 -0.000679 9.278123 0.000000 -0.000000 -0.000000 8.207792 -6.751710 -1.599556 -0.074518 -0.000003 0.000081 -0.000002 -44.370014 0.346960 0.148822 0.000002 0.000000 -0.000001 -44.423664 -3.044403 -0.074314 0.000000 -0.000002 -0.000004 -8.728671 10.710558 0.000007 -0.000000 -0.000000 0.000000 -0.000680 9.278137 -0.000000 0.000000 -0.000001 
0.000006 104.270477 1.554256 0.000010 0.000003 -0.000113 -0.000005 10.181587 0.131522 0.000001 -0.000003 0.000084 -0.000000 9.893967 -1.470711 0.000001 0.000000 -0.000000 -0.000000 9.220802 -1.370642 0.000000 -0.000000 -0.000000 0.000001 16.740433 -2.049030 0.000000 -0.000000 -0.000000 0.000000 9.617859 1.685014 0.000000 0.000000 0.000000 0.000002 22.037384 7.501101 0.000000 -0.000000 0.000000 -4.569968 11.014880 -2.160881 0.000008 0.000001 -0.000038 -10.592884 -0.524720 -2.231969 71.557604 18.826838 -13.626582 -27.841522 0.000022 0.000535 -57.026773 113.108336 78.871937 -28.328819 0.000020 0.000023 -0.000322 -0.000043 0.000006 -2.464438 -1.573844 2.682369 -38.452370 -160.145547 12.409556 -3.215279 -1.872582 1.924648 155.279734 32.365510 7.814215 -2.654953 -1.527879 1.513077 146.309578 27.171456 -35.894679 -2.018829 -1.151985 1.108066 0.000002 0.000000 -0.000000 -9.108369 -0.517555 2.260126 100.973439 15.535924 -18.839827 -3.700062 0.000337 0.001514 99.534646 11.111590 -13.090282 -2.850067 0.000371 -0.000263 98.489709 8.640920 -10.018851 -2.772170 0.000001 -0.000024 -0.000000 -0.000000 -0.000001 -9.532583 0.000268 0.000236 92.368978 16.447978 -17.281123 -3.700073 0.000345 0.003962 92.431973 9.782773 -10.108831 -2.950051 0.000334 -0.001806 93.441919 9.770531 -10.365268 -2.946627 0.000003 -0.000152 0.000000 -0.000001 -0.000002 -9.103694 -0.042765 -1.864894 87.916269 17.578597 -16.916632 -3.379304 0.000332 -0.000825 90.533597 8.236067 -8.330054 -2.889736 0.000377 0.000626 95.692965 5.483920 -6.106048 -2.638802 0.000001 0.000939 -0.000003 -0.000000 -0.000003 -8.076742 -0.486385 -3.806072 78.479782 16.951587 -13.754358 -3.600045 0.000270 -0.003554 82.147812 8.917418 -7.463565 -2.100018 0.000320 -0.005501 85.407964 5.855834 -5.201843 -2.115769 -0.000042 -0.003680 0.000002 -0.000002 -0.000003 4.570446 11.014691 -2.160851 -0.000018 0.000010 -0.000021 10.592358 -0.524549 -2.232278 70.337548 14.947837 -10.562419 27.841833 0.000087 -0.000216 103.056961 -66.742778 79.310640 28.328833 -0.000028 0.000024 0.000021 -0.000089 -0.000000 2.466252 -1.576009 2.681830 14.416296 172.305196 -112.383161 3.217870 -1.871841 1.916436 166.327141 -20.863187 41.979856 2.656118 -1.528666 1.514483 141.881006 -26.719212 55.860583 2.020891 -1.154072 1.115155 0.000001 0.000002 0.000002 9.109382 -0.517868 2.259744 86.538360 -20.257491 19.079526 3.700052 0.000153 -0.000450 85.159646 -13.144562 12.102343 2.850028 0.000203 0.000217 83.327119 -9.822399 8.743568 2.774867 -0.000031 -0.000026 -0.000000 -0.000001 0.000005 9.533467 0.000202 -0.000075 86.282242 -19.582023 18.363976 3.700040 0.000186 -0.000393 89.561600 -11.021378 10.935258 2.950047 0.000188 -0.000205 89.855100 -10.160930 10.138255 2.952866 -0.000016 0.000060 0.000000 -0.000000 -0.000000 9.104591 -0.042860 -1.865198 87.329822 -18.607609 17.775774 3.150063 0.000204 -0.000091 90.796239 -13.361083 13.548197 2.950030 0.000193 -0.000090 91.052985 -10.538734 10.734849 2.644323 0.000028 0.000057 0.000001 0.000001 0.000001 8.077848 -0.486715 -3.806406 82.739682 -20.131182 18.307111 3.600026 0.000164 0.014575 80.761735 -17.851142 15.672943 2.100037 0.000189 0.007543 81.982378 -12.613761 11.395804 2.125507 -0.000003 0.007513 0.000000 -0.000004 -0.000001 -8.207786 -6.751667 -1.599560 -0.077001 -0.000003 0.000080 -0.000002 -44.370110 0.345938 0.153719 -0.000000 -0.000000 0.000000 -44.423679 -3.043532 -0.076700 0.000000 -0.000002 -0.000006 -8.728667 10.710559 -0.000009 -0.000000 -0.000000 -0.000001 -0.000679 9.278123 0.000000 -0.000000 -0.000000 8.207792 -6.751710 -1.599556 -0.074518 -0.000003 0.000081 -0.000002 -44.370014 0.346960 0.148822 0.000002 0.000000 -0.000001 -44.423664 -3.044403 -0.074314 0.000000 -0.000002 -0.000004 -8.728671 10.710558 0.000007 -0.000000 -0.000000 0.000000 -0.000680 9.278137 -0.000000 0.000000 -0.000001 
